<svg version="1.1" id="Layer_1" xmlns="http://www.w3.org/2000/svg" xmlns:xlink="http://www.w3.org/1999/xlink" x="0px" y="0px"
	 width="100%" viewBox="0 0 512 512" enable-background="new 0 0 512 512" xml:space="preserve">
<path fill="#000000" opacity="1.000000" stroke="none" 
	d="
M277.000000,513.000000 
	C184.689072,513.000000 92.878143,513.000000 1.033606,513.000000 
	C1.033606,342.397369 1.033606,171.794754 1.033606,1.096060 
	C171.560944,1.096060 342.121979,1.096060 512.841492,1.096060 
	C512.841492,171.666550 512.841492,342.333252 512.841492,513.000000 
	C434.461395,513.000000 355.980682,513.000000 277.000000,513.000000 
M237.381668,25.944210 
	C233.353821,28.270418 229.353821,30.646441 225.293625,32.914753 
	C199.180206,47.503559 173.029816,62.026340 146.937973,76.653595 
	C120.551125,91.446228 94.254227,106.399559 67.842079,121.146652 
	C58.336109,126.454254 50.076626,132.875900 45.516987,143.114258 
	C42.275440,150.392914 41.460659,158.202057 41.444412,165.989838 
	C41.324123,223.640610 41.361156,281.291779 41.404037,338.942780 
	C41.408478,344.910126 41.646976,350.855896 42.154858,356.840210 
	C43.437561,371.954315 50.961914,382.709229 63.615246,390.165344 
	C74.635376,396.659058 85.906311,402.726471 97.050156,409.011108 
	C119.769638,421.823883 142.469955,434.670685 165.193573,447.476135 
	C186.465195,459.463318 207.935974,471.110291 228.979477,483.484558 
	C244.224915,492.449341 259.620911,496.287018 276.214264,488.085876 
	C283.796631,484.338348 291.003204,479.832397 298.394714,475.696381 
	C318.264587,464.577881 338.157806,453.500885 358.013336,442.356781 
	C386.993683,426.091278 415.707825,409.330475 445.001953,393.652496 
	C463.912567,383.531708 472.761597,368.623535 472.690460,347.422394 
	C472.498108,290.105225 472.644257,232.787003 472.596710,175.469254 
	C472.591644,169.335739 472.335205,163.219772 471.856171,157.070877 
	C470.655853,141.663559 462.751709,131.084747 449.969666,123.518486 
	C444.392242,120.216949 438.653839,117.188347 433.008759,114.000000 
	C410.297821,101.172935 387.606445,88.311211 364.885376,75.502167 
	C344.614594,64.074440 324.312592,52.702095 304.027649,41.299496 
	C295.191711,36.332626 286.517548,31.050200 277.495850,26.448332 
	C264.599670,19.870119 251.338852,19.684725 237.381668,25.944210 
z"/>
<path fill="#000000" opacity="1.000000" stroke="none" 
	d="
M190.793854,284.375671 
	C201.335434,308.103363 218.974655,322.640106 244.104584,327.526184 
	C261.770081,330.960968 278.443451,327.588287 293.938751,318.461761 
	C299.822510,314.996307 304.897247,310.444061 310.370850,305.839722 
	C324.863647,314.210876 339.341522,322.573456 353.844208,330.950317 
	C331.376923,363.841156 283.808960,388.331573 231.208527,376.990601 
	C175.033295,364.878845 138.515350,317.672974 134.743973,267.265686 
	C129.887177,202.351471 171.701233,153.780014 222.981857,139.079788 
	C275.875275,123.917206 327.668121,145.901962 354.070312,182.842697 
	C339.583466,191.247375 325.150696,199.620682 310.241028,208.270676 
	C293.682526,192.031326 273.904358,183.483627 250.434402,185.512070 
	C236.250610,186.737946 223.517654,191.997513 212.215622,200.911392 
	C185.975113,221.607208 179.153961,257.202087 190.793854,284.375671 
z"/>
<path fill="#000000" opacity="1.000000" stroke="none" 
	d="
M410.621643,240.669464 
	C410.628815,226.560760 410.628815,226.560745 424.245209,226.624756 
	C431.347839,226.658142 431.312500,226.658508 431.381317,233.719742 
	C431.525391,248.500763 429.484375,246.467163 444.476562,246.619125 
	C451.339783,246.688721 451.340057,246.662308 451.373322,253.447678 
	C451.440552,267.165558 451.440155,267.325836 437.614502,267.292389 
	C432.790649,267.280731 431.243347,268.987061 431.285553,273.756714 
	C431.406982,287.463348 431.238220,287.464813 417.308319,287.381287 
	C410.686371,287.341553 410.693420,287.341553 410.632843,280.808350 
	C410.494568,265.897247 412.428040,267.449951 397.371155,267.389832 
	C390.676636,267.363098 390.676666,267.355408 390.627106,260.889160 
	C390.519226,246.805649 390.519043,246.705231 404.565613,246.681107 
	C408.609314,246.674164 411.118317,245.733749 410.621643,240.669464 
z"/>
<path fill="#000000" opacity="1.000000" stroke="none" 
	d="
M359.252625,284.818054 
	C358.830048,287.304871 357.250977,287.341431 355.738098,287.349731 
	C351.242279,287.374329 346.745758,287.303009 342.250366,287.350525 
	C339.746552,287.376953 338.615845,286.293549 338.657349,283.753418 
	C338.719849,279.924713 338.563629,276.092255 338.633789,272.263855 
	C338.695587,268.891754 337.104156,267.369324 333.800476,267.390381 
	C330.137024,267.413727 326.470886,267.290527 322.810211,267.389587 
	C319.904480,267.468170 318.519775,266.375824 318.618408,263.318542 
	C318.752594,259.159637 318.777710,254.987732 318.606293,250.831421 
	C318.466827,247.448639 320.096344,246.499329 323.152069,246.606796 
	C326.810883,246.735489 330.479309,246.561905 334.141815,246.623901 
	C337.316742,246.677658 338.682098,245.168808 338.628906,242.053787 
	C338.566406,238.391296 338.750824,234.721939 338.606567,231.064301 
	C338.482666,227.923416 339.616913,226.467026 342.911346,226.601791 
	C346.901459,226.765015 350.911438,226.797745 354.897705,226.592621 
	C358.503204,226.407089 359.545319,228.078842 359.401611,231.376282 
	C359.242249,235.032593 359.424042,238.702499 359.381989,242.365616 
	C359.348328,245.299057 360.762421,246.626770 363.648590,246.610397 
	C367.478607,246.588669 371.311462,246.722504 375.138367,246.617371 
	C378.010498,246.538467 379.477112,247.520813 379.381165,250.618668 
	C379.247162,254.944336 379.272247,259.278595 379.364441,263.606323 
	C379.424377,266.419739 378.122314,267.446777 375.428284,267.378326 
	C371.767181,267.285370 368.097412,267.485535 364.438934,267.351837 
	C360.851746,267.220734 359.221466,268.668915 359.347290,272.348297 
	C359.483734,276.339264 359.333160,280.340057 359.252625,284.818054 
z"/>
</svg>