<svg version="1.1" id="Layer_1" xmlns="http://www.w3.org/2000/svg" xmlns:xlink="http://www.w3.org/1999/xlink" x="0px" y="0px"
	 width="100%" viewBox="0 0 225 225" enable-background="new 0 0 225 225" xml:space="preserve">
<path fill="#FCFCFC" opacity="1.000000" stroke="none" 
	d="
M99.000000,1.000000 
	C109.020897,1.000000 119.041786,1.000000 129.236511,1.351062 
	C132.396423,2.488603 135.365204,3.349527 138.371536,4.049066 
	C153.933273,7.670109 162.722275,18.306810 162.860397,34.087681 
	C163.003281,50.410961 162.984177,66.735970 162.973175,83.060181 
	C162.964340,96.160072 151.886826,107.864349 138.830139,108.229286 
	C122.515236,108.685287 106.185272,108.639091 89.874702,109.190834 
	C85.330223,109.344551 80.428322,109.986885 76.385155,111.885002 
	C62.889633,118.220619 55.363556,128.781433 55.602684,144.214691 
	C55.746292,153.483063 55.629063,162.755478 55.629063,172.140732 
	C47.734921,172.140732 40.784557,172.176865 33.834702,172.132645 
	C22.028034,172.057495 13.761356,166.111404 9.331545,155.628098 
	C6.324883,148.512726 4.909877,140.728760 2.689395,133.271683 
	C2.436416,132.422104 1.577797,131.752869 1.000002,131.000000 
	C1.000000,122.645767 1.000000,114.291534 1.354411,105.752556 
	C3.090985,100.329018 4.388154,95.066017 5.871679,89.856087 
	C9.886741,75.755760 21.053253,64.648216 38.851940,64.701027 
	C58.319363,64.758804 77.787842,64.405174 97.256104,64.262703 
	C104.190987,64.211960 111.126549,64.254578 117.958641,64.254578 
	C117.958641,60.741161 117.958641,57.866631 117.958641,54.545727 
	C99.868820,54.545727 82.150612,54.545727 64.982895,54.545727 
	C64.982895,44.785496 64.942802,35.491714 64.994080,26.198441 
	C65.046288,16.735418 69.932228,10.367943 78.512077,7.248844 
	C84.236679,5.167737 90.398628,4.304059 96.331909,2.768274 
	C97.308418,2.515512 98.114922,1.605994 99.000000,1.000000 
M78.148682,27.918240 
	C76.007713,34.414284 77.559509,39.139179 82.597305,41.463341 
	C87.324112,43.644035 93.041779,41.822842 95.572472,37.330486 
	C98.001854,33.017956 96.678879,27.510866 92.490189,24.500084 
	C88.041908,21.302706 82.662941,22.367973 78.148682,27.918240 
z"/>
<path fill="#FDFDFD" opacity="1.000000" stroke="none" 
	d="
M226.000000,93.000000 
	C226.000000,103.687561 226.000000,114.375122 225.644547,125.258606 
	C224.418884,128.780594 223.519928,132.099472 222.683365,135.433975 
	C218.893448,150.540085 207.507492,163.097122 187.714096,162.890060 
	C163.394547,162.635666 139.070297,162.829346 114.748070,162.829346 
	C112.976822,162.829346 111.205574,162.829361 109.484726,162.829361 
	C109.484726,166.461090 109.484726,169.497696 109.484726,173.000671 
	C127.598068,173.000671 145.340790,173.000671 162.822311,173.000671 
	C162.822311,182.622101 162.853790,191.759689 162.813797,200.896957 
	C162.770493,210.791748 157.604111,217.199905 148.634293,220.481094 
	C143.981094,222.183258 138.989059,222.945786 134.187485,224.268585 
	C133.361984,224.496002 132.724396,225.405548 132.000000,226.000000 
	C119.979103,226.000000 107.958214,226.000000 95.758072,225.657867 
	C92.773689,224.477066 89.965103,223.649719 87.164001,222.797821 
	C72.405449,218.309235 65.058868,208.774719 64.976585,193.578094 
	C64.889091,177.420364 65.423126,161.248840 64.921005,145.107147 
	C64.533226,132.641022 76.499870,118.229202 91.737457,118.593040 
	C108.378784,118.990402 125.047577,118.381355 141.700195,118.018387 
	C144.431213,117.958862 147.322708,117.329056 149.830017,116.245476 
	C164.404266,109.946968 172.204041,98.965927 172.222885,82.845016 
	C172.233521,73.742935 172.224808,64.640839 172.224808,55.240280 
	C179.837646,55.240280 186.798538,55.216347 193.759186,55.245712 
	C205.097565,55.293541 213.309433,60.731659 217.897430,70.781258 
	C220.761780,77.055367 222.153259,83.997414 224.298508,90.609619 
	C224.586411,91.497017 225.419403,92.207565 226.000000,93.000000 
M148.764740,188.827774 
	C145.660751,185.636597 142.130493,183.718765 137.609528,185.557816 
	C133.789673,187.111664 130.644318,190.006531 131.216217,194.107285 
	C131.665115,197.326111 133.665451,200.927795 136.093781,203.124237 
	C139.350266,206.069763 143.582840,205.364258 147.064484,202.567612 
	C150.798737,199.568024 151.456955,195.133575 148.764740,188.827774 
z"/>
<path fill="#030303" opacity="1.000000" stroke="none" 
	d="
M226.000000,92.531342 
	C225.419403,92.207565 224.586411,91.497017 224.298508,90.609619 
	C222.153259,83.997414 220.761780,77.055367 217.897430,70.781258 
	C213.309433,60.731659 205.097565,55.293541 193.759186,55.245712 
	C186.798538,55.216347 179.837646,55.240280 172.224808,55.240280 
	C172.224808,64.640839 172.233521,73.742935 172.222885,82.845016 
	C172.204041,98.965927 164.404266,109.946968 149.830017,116.245476 
	C147.322708,117.329056 144.431213,117.958862 141.700195,118.018387 
	C125.047577,118.381355 108.378784,118.990402 91.737457,118.593040 
	C76.499870,118.229202 64.533226,132.641022 64.921005,145.107147 
	C65.423126,161.248840 64.889091,177.420364 64.976585,193.578094 
	C65.058868,208.774719 72.405449,218.309235 87.164001,222.797821 
	C89.965103,223.649719 92.773689,224.477066 95.289413,225.657867 
	C63.739357,226.000000 32.478714,226.000000 1.000000,226.000000 
	C1.000000,194.646103 1.000000,163.291718 1.000002,131.468658 
	C1.577797,131.752869 2.436416,132.422104 2.689395,133.271683 
	C4.909877,140.728760 6.324883,148.512726 9.331545,155.628098 
	C13.761356,166.111404 22.028034,172.057495 33.834702,172.132645 
	C40.784557,172.176865 47.734921,172.140732 55.629063,172.140732 
	C55.629063,162.755478 55.746292,153.483063 55.602684,144.214691 
	C55.363556,128.781433 62.889633,118.220619 76.385155,111.885002 
	C80.428322,109.986885 85.330223,109.344551 89.874702,109.190834 
	C106.185272,108.639091 122.515236,108.685287 138.830139,108.229286 
	C151.886826,107.864349 162.964340,96.160072 162.973175,83.060181 
	C162.984177,66.735970 163.003281,50.410961 162.860397,34.087681 
	C162.722275,18.306810 153.933273,7.670109 138.371536,4.049066 
	C135.365204,3.349527 132.396423,2.488603 129.705170,1.351062 
	C161.925369,1.000000 193.850723,1.000000 226.000000,1.000000 
	C226.000000,31.353861 226.000000,61.708271 226.000000,92.531342 
z"/>
<path fill="#010101" opacity="1.000000" stroke="none" 
	d="
M98.531342,1.000000 
	C98.114922,1.605994 97.308418,2.515512 96.331909,2.768274 
	C90.398628,4.304059 84.236679,5.167737 78.512077,7.248844 
	C69.932228,10.367943 65.046288,16.735418 64.994080,26.198441 
	C64.942802,35.491714 64.982895,44.785496 64.982895,54.545727 
	C82.150612,54.545727 99.868820,54.545727 117.958641,54.545727 
	C117.958641,57.866631 117.958641,60.741161 117.958641,64.254578 
	C111.126549,64.254578 104.190987,64.211960 97.256104,64.262703 
	C77.787842,64.405174 58.319363,64.758804 38.851940,64.701027 
	C21.053253,64.648216 9.886741,75.755760 5.871679,89.856087 
	C4.388154,95.066017 3.090985,100.329018 1.354411,105.283905 
	C1.000000,70.408562 1.000000,35.817131 1.000000,1.000000 
	C33.353878,1.000000 65.708282,1.000000 98.531342,1.000000 
z"/>
<path fill="#020202" opacity="1.000000" stroke="none" 
	d="
M132.468658,226.000000 
	C132.724396,225.405548 133.361984,224.496002 134.187485,224.268585 
	C138.989059,222.945786 143.981094,222.183258 148.634293,220.481094 
	C157.604111,217.199905 162.770493,210.791748 162.813797,200.896957 
	C162.853790,191.759689 162.822311,182.622101 162.822311,173.000671 
	C145.340790,173.000671 127.598068,173.000671 109.484726,173.000671 
	C109.484726,169.497696 109.484726,166.461090 109.484726,162.829361 
	C111.205574,162.829361 112.976822,162.829346 114.748070,162.829346 
	C139.070297,162.829346 163.394547,162.635666 187.714096,162.890060 
	C207.507492,163.097122 218.893448,150.540085 222.683365,135.433975 
	C223.519928,132.099472 224.418884,128.780594 225.644547,125.727264 
	C226.000000,159.257996 226.000000,192.516006 226.000000,226.000000 
	C194.979477,226.000000 163.958389,226.000000 132.468658,226.000000 
z"/>
<path fill="#070707" opacity="1.000000" stroke="none" 
	d="
M78.359390,27.587549 
	C82.662941,22.367973 88.041908,21.302706 92.490189,24.500084 
	C96.678879,27.510866 98.001854,33.017956 95.572472,37.330486 
	C93.041779,41.822842 87.324112,43.644035 82.597305,41.463341 
	C77.559509,39.139179 76.007713,34.414284 78.359390,27.587549 
z"/>
<path fill="#060606" opacity="1.000000" stroke="none" 
	d="
M148.997391,189.129745 
	C151.456955,195.133575 150.798737,199.568024 147.064484,202.567612 
	C143.582840,205.364258 139.350266,206.069763 136.093781,203.124237 
	C133.665451,200.927795 131.665115,197.326111 131.216217,194.107285 
	C130.644318,190.006531 133.789673,187.111664 137.609528,185.557816 
	C142.130493,183.718765 145.660751,185.636597 148.997391,189.129745 
z"/>
</svg>