<svg version="1.1" id="Layer_1" xmlns="http://www.w3.org/2000/svg" xmlns:xlink="http://www.w3.org/1999/xlink" x="0px" y="0px"
	 width="100%" viewBox="0 0 512 512" enable-background="new 0 0 512 512" xml:space="preserve">
<path fill="#000000" opacity="1.000000" stroke="none" 
	d="
M314.000000,513.000000 
	C311.629425,513.000000 309.258881,513.000000 306.290161,512.600830 
	C303.084808,511.939301 300.467926,511.749390 297.872253,511.401276 
	C289.656036,510.299316 281.454041,509.090088 273.234680,508.013214 
	C264.676941,506.891998 256.093689,505.962006 247.542801,504.793121 
	C236.441910,503.275635 225.369003,501.554077 214.270706,500.016693 
	C206.048660,498.877716 197.794174,497.971985 189.574234,496.819000 
	C178.642471,495.285614 167.744629,493.506378 156.805603,492.029968 
	C145.830490,490.548737 134.811661,489.393188 123.832687,487.938538 
	C114.821487,486.744659 105.848289,485.266479 96.844101,484.016296 
	C88.784248,482.897156 80.693802,481.996918 72.637199,480.856384 
	C61.709255,479.309387 50.808044,477.573914 39.881676,476.015289 
	C29.970438,474.601440 20.040861,473.316162 10.246308,471.991364 
	C10.246308,327.973175 10.246308,184.536636 10.246308,40.772217 
	C13.729102,40.486305 16.996923,40.367176 20.220812,39.926579 
	C31.807535,38.343060 43.370186,36.582329 54.960007,35.022881 
	C63.356571,33.893093 71.794678,33.071812 80.191002,31.940386 
	C91.780350,30.378687 103.338402,28.584763 114.927780,27.023252 
	C123.324081,25.891968 131.762451,25.072954 140.158737,23.941490 
	C151.748123,22.379726 163.306107,20.584913 174.895523,19.023344 
	C183.291779,17.892027 191.730240,17.074095 200.126480,15.942596 
	C211.715912,14.380775 223.275925,12.601505 234.862549,11.017732 
	C243.411896,9.849122 251.989777,8.890451 260.543701,7.753550 
	C269.563354,6.554741 278.577362,5.307352 287.579193,3.981964 
	C293.732422,3.075993 299.860626,1.999986 306.000000,0.999999 
	C308.370575,1.000000 310.741119,1.000000 313.555847,1.468657 
	C314.000000,15.536338 314.000000,29.135361 314.000000,43.000000 
	C316.317474,43.000000 318.123749,43.000000 319.930023,43.000000 
	C368.909332,43.000000 417.888794,42.956139 466.867798,43.078762 
	C471.029358,43.089176 475.320190,43.749832 479.325287,44.896564 
	C496.048035,49.684547 503.927094,62.658573 503.942871,79.076622 
	C504.051514,192.028839 504.020020,304.981201 503.957062,417.933502 
	C503.952637,425.841431 503.780243,433.798859 502.904144,441.645996 
	C501.252167,456.441864 488.295563,468.796173 473.426147,468.883698 
	C422.116241,469.185760 370.803497,469.000000 319.491821,469.000000 
	C317.728455,469.000000 315.965118,469.000000 314.000000,469.000000 
	C314.000000,484.054108 314.000000,498.527039 314.000000,513.000000 
M484.000000,78.748352 
	C483.896027,68.807930 478.104767,63.003601 468.246521,63.002518 
	C418.416992,62.997040 368.587494,63.000000 318.757965,63.000000 
	C317.302551,63.000000 315.847137,63.000000 314.199097,63.000000 
	C314.199097,192.126740 314.199097,320.858215 314.199097,449.510590 
	C314.667572,449.716949 314.952637,449.952423 315.237823,449.952576 
	C366.233643,449.979340 417.229736,450.080841 468.225067,449.925049 
	C478.834961,449.892609 483.999878,443.940369 483.999878,433.167267 
	C484.000061,315.342957 484.000000,197.518661 484.000000,78.748352 
M196.049316,262.490540 
	C196.696198,261.202667 197.558884,259.977570 197.954865,258.616669 
	C200.477676,249.946625 201.333954,241.168411 201.150986,232.060394 
	C200.742065,211.705261 185.034210,189.275818 163.121201,186.617599 
	C142.991226,184.175690 123.888054,192.369293 114.378197,209.512146 
	C106.672928,223.401978 105.237404,238.782806 109.138725,254.227448 
	C113.481537,271.419861 123.816254,283.303589 141.434753,288.063171 
	C148.061401,289.853363 154.791916,291.403503 161.216095,293.767029 
	C172.716263,297.998138 184.020157,302.762787 195.296936,307.260834 
	C197.543121,301.211884 199.576721,295.735413 201.594345,290.301941 
	C193.266327,288.043640 185.050873,285.815887 176.835434,283.588104 
	C185.549103,278.438416 191.503952,271.571289 196.049316,262.490540 
M36.431862,214.052917 
	C35.427380,224.074234 38.654598,232.495148 47.190899,237.888504 
	C54.452705,242.476593 62.488506,245.820663 69.981865,250.067978 
	C74.936195,252.876129 76.880409,257.601532 75.633530,261.875763 
	C74.145195,266.977661 69.792679,269.704651 63.837334,270.064117 
	C56.013054,270.536407 48.613865,269.038177 41.612530,265.803986 
	C38.995178,264.594910 38.444378,265.423187 37.990543,267.644653 
	C37.101753,271.995209 36.134380,276.329681 35.113392,281.070770 
	C48.057568,286.996307 61.163368,288.991791 75.203842,285.115845 
	C87.446083,281.736359 96.738579,269.848694 96.064911,256.953522 
	C95.480545,245.767593 89.766708,238.165970 80.325912,233.110275 
	C74.118286,229.785980 67.558830,227.125397 61.247875,223.984848 
	C57.378666,222.059387 54.539639,218.858139 55.383270,214.389557 
	C56.261475,209.737885 59.333500,206.955078 64.441025,205.868790 
	C72.616226,204.130051 79.983284,206.584396 87.875542,209.051559 
	C89.301910,203.567307 90.707634,198.162460 92.182373,192.492233 
	C78.062073,186.600800 63.994175,186.031418 50.583809,193.345901 
	C43.071220,197.443497 37.180462,203.750275 36.431862,214.052917 
M241.000000,250.499832 
	C241.000000,228.732834 241.000000,206.965820 241.000000,185.818558 
	C233.065567,185.818558 225.603180,185.818558 218.270447,185.818558 
	C218.270447,221.005966 218.270447,255.377686 218.270447,289.850342 
	C240.584991,290.437958 262.631866,291.018524 284.775574,291.601654 
	C284.775574,285.159515 284.775574,278.750671 284.775574,271.378052 
	C270.111237,271.378052 255.660324,271.378052 241.000000,271.378052 
	C241.000000,264.108582 241.000000,257.804077 241.000000,250.499832 
z"/>
<path fill="#FFFFFF" opacity="1.000000" stroke="none" 
	d="
M314.468658,513.000000 
	C314.000000,498.527039 314.000000,484.054108 314.000000,469.000000 
	C315.965118,469.000000 317.728455,469.000000 319.491821,469.000000 
	C370.803497,469.000000 422.116241,469.185760 473.426147,468.883698 
	C488.295563,468.796173 501.252167,456.441864 502.904144,441.645996 
	C503.780243,433.798859 503.952637,425.841431 503.957062,417.933502 
	C504.020020,304.981201 504.051514,192.028839 503.942871,79.076622 
	C503.927094,62.658573 496.048035,49.684547 479.325287,44.896564 
	C475.320190,43.749832 471.029358,43.089176 466.867798,43.078762 
	C417.888794,42.956139 368.909332,43.000000 319.930023,43.000000 
	C318.123749,43.000000 316.317474,43.000000 314.000000,43.000000 
	C314.000000,29.135361 314.000000,15.536338 314.000000,1.468657 
	C380.301422,1.000000 446.602875,1.000000 512.952148,1.000000 
	C512.952148,171.552704 512.952148,342.105408 512.952148,513.000000 
	C446.979492,513.000000 380.958405,513.000000 314.468658,513.000000 
z"/>
<path fill="#FFFFFF" opacity="1.000000" stroke="none" 
	d="
M305.531342,0.999999 
	C299.860626,1.999986 293.732422,3.075993 287.579193,3.981964 
	C278.577362,5.307352 269.563354,6.554741 260.543701,7.753550 
	C251.989777,8.890451 243.411896,9.849122 234.862549,11.017732 
	C223.275925,12.601505 211.715912,14.380775 200.126480,15.942596 
	C191.730240,17.074095 183.291779,17.892027 174.895523,19.023344 
	C163.306107,20.584913 151.748123,22.379726 140.158737,23.941490 
	C131.762451,25.072954 123.324081,25.891968 114.927780,27.023252 
	C103.338402,28.584763 91.780350,30.378687 80.191002,31.940386 
	C71.794678,33.071812 63.356571,33.893093 54.960007,35.022881 
	C43.370186,36.582329 31.807535,38.343060 20.220812,39.926579 
	C16.996923,40.367176 13.729102,40.486305 10.246308,40.772217 
	C10.246308,184.536636 10.246308,327.973175 10.246308,471.991364 
	C20.040861,473.316162 29.970438,474.601440 39.881676,476.015289 
	C50.808044,477.573914 61.709255,479.309387 72.637199,480.856384 
	C80.693802,481.996918 88.784248,482.897156 96.844101,484.016296 
	C105.848289,485.266479 114.821487,486.744659 123.832687,487.938538 
	C134.811661,489.393188 145.830490,490.548737 156.805603,492.029968 
	C167.744629,493.506378 178.642471,495.285614 189.574234,496.819000 
	C197.794174,497.971985 206.048660,498.877716 214.270706,500.016693 
	C225.369003,501.554077 236.441910,503.275635 247.542801,504.793121 
	C256.093689,505.962006 264.676941,506.891998 273.234680,508.013214 
	C281.454041,509.090088 289.656036,510.299316 297.872253,511.401276 
	C300.467926,511.749390 303.084808,511.939301 305.846008,512.600830 
	C204.372955,513.000000 102.745903,513.000000 1.059428,513.000000 
	C1.059428,342.439484 1.059428,171.878937 1.059428,1.000000 
	C102.354004,1.000000 203.708344,1.000000 305.531342,0.999999 
z"/>
<path fill="#FFFFFF" opacity="1.000000" stroke="none" 
	d="
M484.000000,79.221352 
	C484.000000,197.518661 484.000061,315.342957 483.999878,433.167267 
	C483.999878,443.940369 478.834961,449.892609 468.225067,449.925049 
	C417.229736,450.080841 366.233643,449.979340 315.237823,449.952576 
	C314.952637,449.952423 314.667572,449.716949 314.199097,449.510590 
	C314.199097,320.858215 314.199097,192.126740 314.199097,63.000000 
	C315.847137,63.000000 317.302551,63.000000 318.757965,63.000000 
	C368.587494,63.000000 418.416992,62.997040 468.246521,63.002518 
	C478.104767,63.003601 483.896027,68.807930 484.000000,79.221352 
M455.999969,222.841522 
	C455.330231,218.366074 455.104553,213.758881 453.829926,209.462891 
	C453.020813,206.735733 451.156616,203.794159 448.898956,202.111450 
	C436.083893,192.559875 420.795593,190.550156 405.531219,189.123276 
	C397.946930,188.414322 390.240479,189.085236 382.591309,188.981873 
	C367.632416,188.779724 353.185089,191.550247 339.502777,197.382782 
	C334.681305,199.438080 329.186157,201.941650 327.633423,207.970413 
	C326.951477,210.618317 327.744751,213.723846 326.794067,216.210999 
	C323.277252,225.411697 325.611511,234.873016 325.124146,244.187302 
	C324.988251,246.784637 327.537628,249.914520 326.754303,252.017578 
	C323.492615,260.774536 325.567200,269.694641 325.119507,278.502899 
	C324.996033,280.932770 327.513489,283.897186 326.769623,285.825958 
	C323.525940,294.236938 325.566132,302.829041 325.049072,311.301086 
	C324.716034,316.757629 326.885773,321.394958 330.748016,325.260742 
	C336.614044,331.132202 343.935364,334.525726 351.648834,336.938538 
	C366.473083,341.575623 381.613617,342.987183 397.223663,342.223572 
	C410.186310,341.589478 422.728668,339.856628 434.663330,334.913208 
	C443.673279,331.181305 453.393768,327.015381 455.070496,316.113770 
	C456.396790,307.490387 455.285309,298.483124 455.130066,289.648560 
	C455.099854,287.929810 453.735840,285.931854 454.265869,284.554962 
	C457.739319,275.531494 455.362579,266.221985 455.881470,257.076813 
	C456.009552,254.819687 453.537292,252.051071 454.213196,250.250671 
	C457.491180,241.519028 455.296814,232.576492 455.999969,222.841522 
z"/>
<path fill="#FFFFFF" opacity="1.000000" stroke="none" 
	d="
M196.012024,262.880157 
	C191.503952,271.571289 185.549103,278.438416 176.835434,283.588104 
	C185.050873,285.815887 193.266327,288.043640 201.594345,290.301941 
	C199.576721,295.735413 197.543121,301.211884 195.296936,307.260834 
	C184.020157,302.762787 172.716263,297.998138 161.216095,293.767029 
	C154.791916,291.403503 148.061401,289.853363 141.434753,288.063171 
	C123.816254,283.303589 113.481537,271.419861 109.138725,254.227448 
	C105.237404,238.782806 106.672928,223.401978 114.378197,209.512146 
	C123.888054,192.369293 142.991226,184.175690 163.121201,186.617599 
	C185.034210,189.275818 200.742065,211.705261 201.150986,232.060394 
	C201.333954,241.168411 200.477676,249.946625 197.954865,258.616669 
	C197.558884,259.977570 196.696198,261.202667 196.012024,262.880157 
M177.999908,243.188904 
	C177.666199,237.447998 178.334198,231.408356 176.734680,226.044968 
	C174.905777,219.912384 172.362946,212.925797 167.835724,208.874435 
	C156.429810,198.667419 140.673065,202.406219 134.074890,216.374298 
	C131.923996,220.927673 130.344589,225.967850 129.639496,230.946243 
	C127.606987,245.297440 129.629288,258.846710 141.444016,268.758118 
	C148.887451,275.002411 162.799454,273.320374 169.139252,265.711426 
	C174.460281,259.325226 176.296112,251.820618 177.999908,243.188904 
z"/>
<path fill="#FFFFFF" opacity="1.000000" stroke="none" 
	d="
M36.693123,213.701904 
	C37.180462,203.750275 43.071220,197.443497 50.583809,193.345901 
	C63.994175,186.031418 78.062073,186.600800 92.182373,192.492233 
	C90.707634,198.162460 89.301910,203.567307 87.875542,209.051559 
	C79.983284,206.584396 72.616226,204.130051 64.441025,205.868790 
	C59.333500,206.955078 56.261475,209.737885 55.383270,214.389557 
	C54.539639,218.858139 57.378666,222.059387 61.247875,223.984848 
	C67.558830,227.125397 74.118286,229.785980 80.325912,233.110275 
	C89.766708,238.165970 95.480545,245.767593 96.064911,256.953522 
	C96.738579,269.848694 87.446083,281.736359 75.203842,285.115845 
	C61.163368,288.991791 48.057568,286.996307 35.113392,281.070770 
	C36.134380,276.329681 37.101753,271.995209 37.990543,267.644653 
	C38.444378,265.423187 38.995178,264.594910 41.612530,265.803986 
	C48.613865,269.038177 56.013054,270.536407 63.837334,270.064117 
	C69.792679,269.704651 74.145195,266.977661 75.633530,261.875763 
	C76.880409,257.601532 74.936195,252.876129 69.981865,250.067978 
	C62.488506,245.820663 54.452705,242.476593 47.190899,237.888504 
	C38.654598,232.495148 35.427380,224.074234 36.693123,213.701904 
z"/>
<path fill="#FFFFFF" opacity="1.000000" stroke="none" 
	d="
M241.000000,250.999725 
	C241.000000,257.804077 241.000000,264.108582 241.000000,271.378052 
	C255.660324,271.378052 270.111237,271.378052 284.775574,271.378052 
	C284.775574,278.750671 284.775574,285.159515 284.775574,291.601654 
	C262.631866,291.018524 240.584991,290.437958 218.270447,289.850342 
	C218.270447,255.377686 218.270447,221.005966 218.270447,185.818558 
	C225.603180,185.818558 233.065567,185.818558 241.000000,185.818558 
	C241.000000,206.965820 241.000000,228.732834 241.000000,250.999725 
z"/>
<path fill="#000000" opacity="1.000000" stroke="none" 
	d="
M456.000000,223.311066 
	C455.296814,232.576492 457.491180,241.519028 454.213196,250.250671 
	C453.537292,252.051071 456.009552,254.819687 455.881470,257.076813 
	C455.362579,266.221985 457.739319,275.531494 454.265869,284.554962 
	C453.735840,285.931854 455.099854,287.929810 455.130066,289.648560 
	C455.285309,298.483124 456.396790,307.490387 455.070496,316.113770 
	C453.393768,327.015381 443.673279,331.181305 434.663330,334.913208 
	C422.728668,339.856628 410.186310,341.589478 397.223663,342.223572 
	C381.613617,342.987183 366.473083,341.575623 351.648834,336.938538 
	C343.935364,334.525726 336.614044,331.132202 330.748016,325.260742 
	C326.885773,321.394958 324.716034,316.757629 325.049072,311.301086 
	C325.566132,302.829041 323.525940,294.236938 326.769623,285.825958 
	C327.513489,283.897186 324.996033,280.932770 325.119507,278.502899 
	C325.567200,269.694641 323.492615,260.774536 326.754303,252.017578 
	C327.537628,249.914520 324.988251,246.784637 325.124146,244.187302 
	C325.611511,234.873016 323.277252,225.411697 326.794067,216.210999 
	C327.744751,213.723846 326.951477,210.618317 327.633423,207.970413 
	C329.186157,201.941650 334.681305,199.438080 339.502777,197.382782 
	C353.185089,191.550247 367.632416,188.779724 382.591309,188.981873 
	C390.240479,189.085236 397.946930,188.414322 405.531219,189.123276 
	C420.795593,190.550156 436.083893,192.559875 448.898956,202.111450 
	C451.156616,203.794159 453.020813,206.735733 453.829926,209.462891 
	C455.104553,213.758881 455.330231,218.366074 456.000000,223.311066 
M429.599060,328.043823 
	C444.926636,324.059631 451.888458,311.755707 447.434906,298.049713 
	C409.281586,316.266815 371.421875,316.175201 333.005005,297.844604 
	C333.005005,302.597076 332.857269,308.010101 333.103302,313.405182 
	C333.169250,314.851898 334.103882,316.625397 335.212891,317.589874 
	C338.630310,320.561920 342.007416,323.828430 345.969879,325.880371 
	C359.185516,332.723907 373.768951,334.430511 388.284729,334.800751 
	C402.072449,335.152374 415.836090,333.433197 429.599060,328.043823 
M343.679901,289.970642 
	C347.655273,291.647522 351.501740,293.801910 355.628998,294.916199 
	C371.121826,299.098969 386.739868,301.199554 402.947601,299.181183 
	C415.069305,297.671631 426.856659,295.605560 437.615936,289.696442 
	C444.108398,286.130707 449.158173,281.393921 448.070374,272.819641 
	C447.640900,269.434448 448.000000,265.949158 448.000000,262.899353 
	C409.619171,281.524414 371.537201,281.746246 333.000000,262.769562 
	C333.000000,265.621735 333.358582,269.086273 332.929474,272.450287 
	C331.851654,280.900330 336.603455,285.671570 343.679901,289.970642 
M445.366089,229.961731 
	C407.811829,245.526947 370.480804,243.881485 333.000000,229.508148 
	C333.000000,232.094528 333.357422,235.734192 332.916382,239.274384 
	C332.251923,244.608551 334.634460,248.558029 338.692017,250.961258 
	C344.574432,254.445343 350.761383,257.717712 357.223328,259.857605 
	C370.441101,264.234772 384.168457,264.674927 398.062683,264.130127 
	C412.904785,263.548187 426.982574,260.574951 439.656250,252.842270 
	C443.119080,250.729462 446.504303,246.826050 447.672791,243.047806 
	C449.054932,238.578568 447.997406,233.354843 447.997406,227.621399 
	C446.888153,228.661362 446.444275,229.077499 445.366089,229.961731 
z"/>
<path fill="#000000" opacity="1.000000" stroke="none" 
	d="
M177.999161,243.651428 
	C176.296112,251.820618 174.460281,259.325226 169.139252,265.711426 
	C162.799454,273.320374 148.887451,275.002411 141.444016,268.758118 
	C129.629288,258.846710 127.606987,245.297440 129.639496,230.946243 
	C130.344589,225.967850 131.923996,220.927673 134.074890,216.374298 
	C140.673065,202.406219 156.429810,198.667419 167.835724,208.874435 
	C172.362946,212.925797 174.905777,219.912384 176.734680,226.044968 
	C178.334198,231.408356 177.666199,237.447998 177.999161,243.651428 
z"/>
<path fill="#FFFFFF" opacity="1.000000" stroke="none" 
	d="
M429.281372,328.295593 
	C415.836090,333.433197 402.072449,335.152374 388.284729,334.800751 
	C373.768951,334.430511 359.185516,332.723907 345.969879,325.880371 
	C342.007416,323.828430 338.630310,320.561920 335.212891,317.589874 
	C334.103882,316.625397 333.169250,314.851898 333.103302,313.405182 
	C332.857269,308.010101 333.005005,302.597076 333.005005,297.844604 
	C371.421875,316.175201 409.281586,316.266815 447.434906,298.049713 
	C451.888458,311.755707 444.926636,324.059631 429.281372,328.295593 
z"/>
<path fill="#FFFFFF" opacity="1.000000" stroke="none" 
	d="
M343.360657,289.762543 
	C336.603455,285.671570 331.851654,280.900330 332.929474,272.450287 
	C333.358582,269.086273 333.000000,265.621735 333.000000,262.769562 
	C371.537201,281.746246 409.619171,281.524414 448.000000,262.899353 
	C448.000000,265.949158 447.640900,269.434448 448.070374,272.819641 
	C449.158173,281.393921 444.108398,286.130707 437.615936,289.696442 
	C426.856659,295.605560 415.069305,297.671631 402.947601,299.181183 
	C386.739868,301.199554 371.121826,299.098969 355.628998,294.916199 
	C351.501740,293.801910 347.655273,291.647522 343.360657,289.762543 
z"/>
<path fill="#FFFFFF" opacity="1.000000" stroke="none" 
	d="
M445.683228,229.727692 
	C446.444275,229.077499 446.888153,228.661362 447.997406,227.621399 
	C447.997406,233.354843 449.054932,238.578568 447.672791,243.047806 
	C446.504303,246.826050 443.119080,250.729462 439.656250,252.842270 
	C426.982574,260.574951 412.904785,263.548187 398.062683,264.130127 
	C384.168457,264.674927 370.441101,264.234772 357.223328,259.857605 
	C350.761383,257.717712 344.574432,254.445343 338.692017,250.961258 
	C334.634460,248.558029 332.251923,244.608551 332.916382,239.274384 
	C333.357422,235.734192 333.000000,232.094528 333.000000,229.508148 
	C370.480804,243.881485 407.811829,245.526947 445.683228,229.727692 
z"/>
</svg>